<mxfile host="app.diagrams.net" agent="Mozilla/5.0 (Windows NT 10.0; Win64; x64) AppleWebKit/537.36 (KHTML, like Gecko) Chrome/131.0.0.0 Safari/537.36" version="24.9.1">
  <diagram name="第 1 页" id="JUmIML43iS3KHeupYltu">
    <mxGraphModel dx="1079" dy="963" grid="0" gridSize="10" guides="1" tooltips="1" connect="1" arrows="1" fold="1" page="0" pageScale="1" pageWidth="827" pageHeight="1169" math="0" shadow="0">
      <root>
        <mxCell id="0" />
        <mxCell id="1" parent="0" />
        <mxCell id="oNz4YCIeYpVKc3F23LFQ-41" value="" style="rounded=0;whiteSpace=wrap;html=1;fillColor=#d5e8d4;strokeColor=#82b366;fontFamily=宋体;" vertex="1" parent="1">
          <mxGeometry x="-90" y="22" width="184" height="57" as="geometry" />
        </mxCell>
        <mxCell id="oNz4YCIeYpVKc3F23LFQ-22" value="" style="rounded=1;whiteSpace=wrap;html=1;fontFamily=宋体;" vertex="1" parent="1">
          <mxGeometry x="-46.566666666666656" y="26.5" width="97.13333333333334" height="48" as="geometry" />
        </mxCell>
        <mxCell id="oNz4YCIeYpVKc3F23LFQ-24" value="" style="rounded=0;whiteSpace=wrap;html=1;fillColor=#d5e8d4;strokeColor=#82b366;fontFamily=宋体;" vertex="1" parent="1">
          <mxGeometry x="-90" y="-178" width="184" height="196" as="geometry" />
        </mxCell>
        <mxCell id="oNz4YCIeYpVKc3F23LFQ-11" value="" style="rounded=1;whiteSpace=wrap;html=1;fontFamily=宋体;" vertex="1" parent="1">
          <mxGeometry x="-46.56666666666666" y="-170" width="97.13333333333334" height="48" as="geometry" />
        </mxCell>
        <mxCell id="oNz4YCIeYpVKc3F23LFQ-16" value="" style="rounded=1;whiteSpace=wrap;html=1;fontFamily=宋体;" vertex="1" parent="1">
          <mxGeometry x="-46.56666666666666" y="-105" width="97.13333333333334" height="48" as="geometry" />
        </mxCell>
        <mxCell id="oNz4YCIeYpVKc3F23LFQ-50" style="edgeStyle=none;curved=1;rounded=0;orthogonalLoop=1;jettySize=auto;html=1;exitX=0.5;exitY=1;exitDx=0;exitDy=0;entryX=0.5;entryY=0;entryDx=0;entryDy=0;fontSize=12;startSize=8;endSize=8;fontFamily=宋体;" edge="1" parent="1" source="oNz4YCIeYpVKc3F23LFQ-12" target="oNz4YCIeYpVKc3F23LFQ-17">
          <mxGeometry relative="1" as="geometry" />
        </mxCell>
        <mxCell id="oNz4YCIeYpVKc3F23LFQ-12" value="&lt;font&gt;逻辑综合&lt;/font&gt;" style="text;html=1;align=center;verticalAlign=middle;whiteSpace=wrap;rounded=0;fontSize=16;fontFamily=宋体;" vertex="1" parent="1">
          <mxGeometry x="-60" y="-170" width="124.00000000000001" height="48" as="geometry" />
        </mxCell>
        <mxCell id="oNz4YCIeYpVKc3F23LFQ-51" style="edgeStyle=none;curved=1;rounded=0;orthogonalLoop=1;jettySize=auto;html=1;exitX=0.5;exitY=1;exitDx=0;exitDy=0;entryX=0.5;entryY=0;entryDx=0;entryDy=0;fontSize=12;startSize=8;endSize=8;fontFamily=宋体;" edge="1" parent="1" source="oNz4YCIeYpVKc3F23LFQ-17" target="oNz4YCIeYpVKc3F23LFQ-20">
          <mxGeometry relative="1" as="geometry" />
        </mxCell>
        <mxCell id="oNz4YCIeYpVKc3F23LFQ-17" value="&lt;font&gt;逻辑仿真&lt;/font&gt;" style="text;html=1;align=center;verticalAlign=middle;whiteSpace=wrap;rounded=0;fontSize=16;fontFamily=宋体;" vertex="1" parent="1">
          <mxGeometry x="-60" y="-105" width="124.00000000000001" height="48" as="geometry" />
        </mxCell>
        <mxCell id="oNz4YCIeYpVKc3F23LFQ-26" style="edgeStyle=orthogonalEdgeStyle;rounded=0;orthogonalLoop=1;jettySize=auto;html=1;exitX=0.5;exitY=1;exitDx=0;exitDy=0;entryX=0.5;entryY=0;entryDx=0;entryDy=0;fontSize=12;startSize=8;endSize=8;fontFamily=宋体;" edge="1" parent="1" source="oNz4YCIeYpVKc3F23LFQ-1" target="oNz4YCIeYpVKc3F23LFQ-8">
          <mxGeometry relative="1" as="geometry" />
        </mxCell>
        <mxCell id="oNz4YCIeYpVKc3F23LFQ-1" value="" style="rounded=1;whiteSpace=wrap;html=1;fontFamily=宋体;" vertex="1" parent="1">
          <mxGeometry x="-60" y="-292" width="58" height="34" as="geometry" />
        </mxCell>
        <mxCell id="oNz4YCIeYpVKc3F23LFQ-3" value="&lt;font&gt;&lt;i&gt;Circuit&lt;/i&gt;1&lt;/font&gt;" style="text;html=1;align=center;verticalAlign=middle;whiteSpace=wrap;rounded=0;fontSize=16;fontFamily=Times New Roman;" vertex="1" parent="1">
          <mxGeometry x="-58.5" y="-285" width="55" height="20" as="geometry" />
        </mxCell>
        <mxCell id="oNz4YCIeYpVKc3F23LFQ-28" style="edgeStyle=orthogonalEdgeStyle;rounded=0;orthogonalLoop=1;jettySize=auto;html=1;exitX=0.5;exitY=1;exitDx=0;exitDy=0;entryX=0.5;entryY=0;entryDx=0;entryDy=0;fontSize=12;startSize=8;endSize=8;fontFamily=宋体;" edge="1" parent="1" source="oNz4YCIeYpVKc3F23LFQ-5" target="oNz4YCIeYpVKc3F23LFQ-8">
          <mxGeometry relative="1" as="geometry" />
        </mxCell>
        <mxCell id="oNz4YCIeYpVKc3F23LFQ-5" value="" style="rounded=1;whiteSpace=wrap;html=1;fontFamily=宋体;" vertex="1" parent="1">
          <mxGeometry x="10" y="-292" width="58" height="34" as="geometry" />
        </mxCell>
        <mxCell id="oNz4YCIeYpVKc3F23LFQ-6" value="&lt;font&gt;&lt;i&gt;Circuit&lt;/i&gt;2&lt;/font&gt;" style="text;html=1;align=center;verticalAlign=middle;whiteSpace=wrap;rounded=0;fontSize=16;fontFamily=Times New Roman;" vertex="1" parent="1">
          <mxGeometry x="11.5" y="-285" width="55" height="20" as="geometry" />
        </mxCell>
        <mxCell id="oNz4YCIeYpVKc3F23LFQ-9" value="" style="group;fontFamily=宋体;" vertex="1" connectable="0" parent="1">
          <mxGeometry x="-28" y="-217" width="60" height="30" as="geometry" />
        </mxCell>
        <mxCell id="oNz4YCIeYpVKc3F23LFQ-7" value="" style="rounded=1;whiteSpace=wrap;html=1;fontFamily=宋体;" vertex="1" parent="oNz4YCIeYpVKc3F23LFQ-9">
          <mxGeometry x="6.5" width="47" height="30" as="geometry" />
        </mxCell>
        <mxCell id="oNz4YCIeYpVKc3F23LFQ-8" value="&lt;font&gt;&lt;i&gt;M&lt;sub&gt;0&lt;/sub&gt;&lt;/i&gt;&lt;/font&gt;" style="text;html=1;align=center;verticalAlign=middle;whiteSpace=wrap;rounded=0;fontSize=16;fontFamily=Times New Roman;" vertex="1" parent="oNz4YCIeYpVKc3F23LFQ-9">
          <mxGeometry width="60" height="30" as="geometry" />
        </mxCell>
        <mxCell id="oNz4YCIeYpVKc3F23LFQ-25" value="终止" style="ellipse;whiteSpace=wrap;html=1;fontFamily=宋体;" vertex="1" parent="1">
          <mxGeometry x="-43" y="88" width="82" height="36" as="geometry" />
        </mxCell>
        <mxCell id="oNz4YCIeYpVKc3F23LFQ-29" value="&lt;font&gt;Mitering&lt;/font&gt;" style="text;html=1;align=center;verticalAlign=middle;whiteSpace=wrap;rounded=0;fontSize=16;fontFamily=Times New Roman;" vertex="1" parent="1">
          <mxGeometry x="20" y="-240" width="48" height="23" as="geometry" />
        </mxCell>
        <mxCell id="oNz4YCIeYpVKc3F23LFQ-31" style="edgeStyle=orthogonalEdgeStyle;rounded=0;orthogonalLoop=1;jettySize=auto;html=1;exitX=0;exitY=0.5;exitDx=0;exitDy=0;entryX=0;entryY=0.5;entryDx=0;entryDy=0;fontSize=12;startSize=8;endSize=8;fontFamily=宋体;" edge="1" parent="1" source="oNz4YCIeYpVKc3F23LFQ-16" target="oNz4YCIeYpVKc3F23LFQ-25">
          <mxGeometry relative="1" as="geometry">
            <Array as="points">
              <mxPoint x="-66" y="-81" />
              <mxPoint x="-66" y="106" />
            </Array>
          </mxGeometry>
        </mxCell>
        <mxCell id="oNz4YCIeYpVKc3F23LFQ-33" value="&lt;font&gt;找到反例&lt;/font&gt;" style="text;html=1;align=center;verticalAlign=middle;whiteSpace=wrap;rounded=0;fontSize=16;fontFamily=宋体;" vertex="1" parent="1">
          <mxGeometry x="-87" y="6" width="16" height="30" as="geometry" />
        </mxCell>
        <mxCell id="oNz4YCIeYpVKc3F23LFQ-36" style="rounded=0;orthogonalLoop=1;jettySize=auto;html=1;exitX=1;exitY=0.5;exitDx=0;exitDy=0;entryX=1;entryY=0.5;entryDx=0;entryDy=0;fontSize=12;startSize=8;endSize=8;edgeStyle=orthogonalEdgeStyle;dashed=1;fontFamily=宋体;" edge="1" parent="1" source="oNz4YCIeYpVKc3F23LFQ-22" target="oNz4YCIeYpVKc3F23LFQ-11">
          <mxGeometry relative="1" as="geometry" />
        </mxCell>
        <mxCell id="oNz4YCIeYpVKc3F23LFQ-39" value="&lt;font&gt;超时&lt;/font&gt;" style="text;html=1;align=center;verticalAlign=middle;whiteSpace=wrap;rounded=0;fontSize=16;fontFamily=宋体;" vertex="1" parent="1">
          <mxGeometry x="75" y="-77" width="16" height="30" as="geometry" />
        </mxCell>
        <mxCell id="oNz4YCIeYpVKc3F23LFQ-40" value="&lt;font&gt;简化&lt;/font&gt;" style="text;html=1;align=center;verticalAlign=middle;whiteSpace=wrap;rounded=0;fontSize=16;fontFamily=宋体;" vertex="1" parent="1">
          <mxGeometry x="-118" y="-95" width="21" height="30" as="geometry" />
        </mxCell>
        <mxCell id="oNz4YCIeYpVKc3F23LFQ-43" value="&lt;font&gt;证明&lt;/font&gt;" style="text;html=1;align=center;verticalAlign=middle;whiteSpace=wrap;rounded=0;fontSize=16;fontFamily=宋体;" vertex="1" parent="1">
          <mxGeometry x="-118" y="34" width="21" height="30" as="geometry" />
        </mxCell>
        <mxCell id="oNz4YCIeYpVKc3F23LFQ-44" value="" style="group;fontFamily=宋体;" vertex="1" connectable="0" parent="1">
          <mxGeometry x="-60" y="-42" width="124" height="48" as="geometry" />
        </mxCell>
        <mxCell id="oNz4YCIeYpVKc3F23LFQ-19" value="" style="rounded=1;whiteSpace=wrap;html=1;fillColor=#fff2cc;strokeColor=#d6b656;fontFamily=宋体;" vertex="1" parent="oNz4YCIeYpVKc3F23LFQ-44">
          <mxGeometry x="13.433333333333337" width="97.13333333333334" height="48" as="geometry" />
        </mxCell>
        <mxCell id="oNz4YCIeYpVKc3F23LFQ-20" value="&lt;font&gt;扫描&lt;/font&gt;" style="text;html=1;align=center;verticalAlign=middle;whiteSpace=wrap;rounded=0;fontSize=16;fontFamily=宋体;" vertex="1" parent="oNz4YCIeYpVKc3F23LFQ-44">
          <mxGeometry width="124.00000000000001" height="48" as="geometry" />
        </mxCell>
        <mxCell id="oNz4YCIeYpVKc3F23LFQ-46" value="" style="rounded=1;whiteSpace=wrap;html=1;fillColor=#fff2cc;strokeColor=#d6b656;fontFamily=宋体;" vertex="1" parent="1">
          <mxGeometry x="118" y="-292" width="336" height="411" as="geometry" />
        </mxCell>
        <mxCell id="oNz4YCIeYpVKc3F23LFQ-48" value="&lt;font&gt;扫描&lt;/font&gt;" style="text;html=1;align=center;verticalAlign=middle;whiteSpace=wrap;rounded=0;fontSize=16;fontFamily=宋体;" vertex="1" parent="1">
          <mxGeometry x="250" y="-280" width="60" height="30" as="geometry" />
        </mxCell>
        <mxCell id="oNz4YCIeYpVKc3F23LFQ-49" style="edgeStyle=none;curved=1;rounded=0;orthogonalLoop=1;jettySize=auto;html=1;exitX=0.5;exitY=1;exitDx=0;exitDy=0;fontSize=12;startSize=8;endSize=8;fontFamily=宋体;" edge="1" parent="1" source="oNz4YCIeYpVKc3F23LFQ-8" target="oNz4YCIeYpVKc3F23LFQ-12">
          <mxGeometry relative="1" as="geometry" />
        </mxCell>
        <mxCell id="oNz4YCIeYpVKc3F23LFQ-54" style="edgeStyle=none;curved=1;rounded=0;orthogonalLoop=1;jettySize=auto;html=1;exitX=0.5;exitY=1;exitDx=0;exitDy=0;entryX=0.5;entryY=0;entryDx=0;entryDy=0;fontSize=12;startSize=8;endSize=8;fontFamily=宋体;" edge="1" parent="1" source="oNz4YCIeYpVKc3F23LFQ-20" target="oNz4YCIeYpVKc3F23LFQ-22">
          <mxGeometry relative="1" as="geometry" />
        </mxCell>
        <mxCell id="oNz4YCIeYpVKc3F23LFQ-23" value="&lt;font&gt;等价验证&lt;/font&gt;" style="text;html=1;align=center;verticalAlign=middle;whiteSpace=wrap;rounded=0;fontSize=16;fontFamily=宋体;" vertex="1" parent="1">
          <mxGeometry x="-60" y="26.5" width="124.00000000000001" height="48" as="geometry" />
        </mxCell>
        <mxCell id="oNz4YCIeYpVKc3F23LFQ-76" style="edgeStyle=none;curved=1;rounded=0;orthogonalLoop=1;jettySize=auto;html=1;exitX=0.5;exitY=1;exitDx=0;exitDy=0;entryX=0.5;entryY=0;entryDx=0;entryDy=0;fontSize=12;startSize=8;endSize=8;" edge="1" parent="1" source="oNz4YCIeYpVKc3F23LFQ-55" target="oNz4YCIeYpVKc3F23LFQ-74">
          <mxGeometry relative="1" as="geometry" />
        </mxCell>
        <mxCell id="oNz4YCIeYpVKc3F23LFQ-55" value="&lt;font&gt;选择等价节点对&lt;/font&gt;" style="rounded=1;whiteSpace=wrap;html=1;fillColor=#fff2cc;strokeColor=#d6b656;fontFamily=宋体;" vertex="1" parent="1">
          <mxGeometry x="220" y="-250" width="120" height="42" as="geometry" />
        </mxCell>
        <mxCell id="oNz4YCIeYpVKc3F23LFQ-67" style="edgeStyle=orthogonalEdgeStyle;rounded=0;orthogonalLoop=1;jettySize=auto;html=1;exitX=0.5;exitY=1;exitDx=0;exitDy=0;entryX=0.5;entryY=0;entryDx=0;entryDy=0;fontSize=12;startSize=8;endSize=8;" edge="1" parent="1" source="oNz4YCIeYpVKc3F23LFQ-56" target="oNz4YCIeYpVKc3F23LFQ-57">
          <mxGeometry relative="1" as="geometry" />
        </mxCell>
        <mxCell id="oNz4YCIeYpVKc3F23LFQ-56" value="&lt;font&gt;电路&lt;font face=&quot;Times New Roman&quot;&gt;sat&lt;/font&gt;&lt;/font&gt;" style="rounded=1;whiteSpace=wrap;html=1;fillColor=#fff2cc;strokeColor=#d6b656;fontFamily=宋体;" vertex="1" parent="1">
          <mxGeometry x="338" y="-87" width="90" height="42" as="geometry" />
        </mxCell>
        <mxCell id="oNz4YCIeYpVKc3F23LFQ-58" style="edgeStyle=orthogonalEdgeStyle;rounded=0;orthogonalLoop=1;jettySize=auto;html=1;exitX=1;exitY=0.5;exitDx=0;exitDy=0;fontSize=12;startSize=8;endSize=8;fontFamily=宋体;" edge="1" parent="1" source="oNz4YCIeYpVKc3F23LFQ-57">
          <mxGeometry relative="1" as="geometry">
            <mxPoint x="340" y="-226" as="targetPoint" />
            <Array as="points">
              <mxPoint x="439" y="20" />
              <mxPoint x="439" y="-226" />
            </Array>
          </mxGeometry>
        </mxCell>
        <mxCell id="oNz4YCIeYpVKc3F23LFQ-61" style="edgeStyle=none;curved=1;rounded=0;orthogonalLoop=1;jettySize=auto;html=1;exitX=0.5;exitY=1;exitDx=0;exitDy=0;fontSize=12;startSize=8;endSize=8;" edge="1" parent="1" source="oNz4YCIeYpVKc3F23LFQ-57" target="oNz4YCIeYpVKc3F23LFQ-59">
          <mxGeometry relative="1" as="geometry" />
        </mxCell>
        <mxCell id="oNz4YCIeYpVKc3F23LFQ-57" value="是否等价" style="rhombus;whiteSpace=wrap;html=1;fillColor=#fff2cc;strokeColor=#d6b656;fontFamily=宋体;" vertex="1" parent="1">
          <mxGeometry x="231.98" y="-3" width="96.04" height="46" as="geometry" />
        </mxCell>
        <mxCell id="oNz4YCIeYpVKc3F23LFQ-71" style="edgeStyle=orthogonalEdgeStyle;rounded=0;orthogonalLoop=1;jettySize=auto;html=1;exitX=0;exitY=0.5;exitDx=0;exitDy=0;entryX=0.5;entryY=1;entryDx=0;entryDy=0;fontSize=12;startSize=8;endSize=8;" edge="1" parent="1" source="oNz4YCIeYpVKc3F23LFQ-59" target="oNz4YCIeYpVKc3F23LFQ-68">
          <mxGeometry relative="1" as="geometry" />
        </mxCell>
        <mxCell id="oNz4YCIeYpVKc3F23LFQ-59" value="&lt;font&gt;合并节点对&lt;/font&gt;" style="rounded=1;whiteSpace=wrap;html=1;fillColor=#fff2cc;strokeColor=#d6b656;fontFamily=宋体;" vertex="1" parent="1">
          <mxGeometry x="220" y="67" width="120" height="42" as="geometry" />
        </mxCell>
        <mxCell id="oNz4YCIeYpVKc3F23LFQ-62" value="Yes" style="text;html=1;align=center;verticalAlign=middle;whiteSpace=wrap;rounded=0;fontSize=16;fontFamily=Times New Roman;" vertex="1" parent="1">
          <mxGeometry x="280" y="37" width="60" height="30" as="geometry" />
        </mxCell>
        <mxCell id="oNz4YCIeYpVKc3F23LFQ-65" value="No" style="text;html=1;align=center;verticalAlign=middle;whiteSpace=wrap;rounded=0;fontSize=16;fontFamily=Times New Roman;" vertex="1" parent="1">
          <mxGeometry x="356.00000000000006" y="-6.5" width="60" height="30" as="geometry" />
        </mxCell>
        <mxCell id="oNz4YCIeYpVKc3F23LFQ-70" style="edgeStyle=orthogonalEdgeStyle;rounded=0;orthogonalLoop=1;jettySize=auto;html=1;exitX=0.5;exitY=0;exitDx=0;exitDy=0;entryX=0;entryY=0.5;entryDx=0;entryDy=0;fontSize=12;startSize=8;endSize=8;" edge="1" parent="1" source="oNz4YCIeYpVKc3F23LFQ-68" target="oNz4YCIeYpVKc3F23LFQ-55">
          <mxGeometry relative="1" as="geometry" />
        </mxCell>
        <mxCell id="oNz4YCIeYpVKc3F23LFQ-68" value="ISD同构算法" style="rounded=1;whiteSpace=wrap;html=1;fillColor=#fff2cc;strokeColor=#d6b656;fontFamily=宋体;" vertex="1" parent="1">
          <mxGeometry x="124" y="-137.5" width="92" height="42" as="geometry" />
        </mxCell>
        <mxCell id="oNz4YCIeYpVKc3F23LFQ-77" style="edgeStyle=orthogonalEdgeStyle;rounded=0;orthogonalLoop=1;jettySize=auto;html=1;exitX=0.5;exitY=1;exitDx=0;exitDy=0;entryX=0.5;entryY=0;entryDx=0;entryDy=0;fontSize=12;startSize=8;endSize=8;" edge="1" parent="1" source="oNz4YCIeYpVKc3F23LFQ-74" target="oNz4YCIeYpVKc3F23LFQ-56">
          <mxGeometry relative="1" as="geometry" />
        </mxCell>
        <mxCell id="oNz4YCIeYpVKc3F23LFQ-80" style="edgeStyle=none;curved=1;rounded=0;orthogonalLoop=1;jettySize=auto;html=1;exitX=0.5;exitY=1;exitDx=0;exitDy=0;entryX=0.5;entryY=0;entryDx=0;entryDy=0;fontSize=12;startSize=8;endSize=8;" edge="1" parent="1" source="oNz4YCIeYpVKc3F23LFQ-74" target="oNz4YCIeYpVKc3F23LFQ-79">
          <mxGeometry relative="1" as="geometry" />
        </mxCell>
        <mxCell id="oNz4YCIeYpVKc3F23LFQ-74" value="&lt;font face=&quot;宋体&quot;&gt;启发式选择&lt;/font&gt;" style="rhombus;whiteSpace=wrap;html=1;fillColor=#fff2cc;strokeColor=#d6b656;" vertex="1" parent="1">
          <mxGeometry x="222" y="-186" width="116" height="58" as="geometry" />
        </mxCell>
        <mxCell id="oNz4YCIeYpVKc3F23LFQ-81" style="edgeStyle=none;curved=1;rounded=0;orthogonalLoop=1;jettySize=auto;html=1;exitX=0.5;exitY=1;exitDx=0;exitDy=0;entryX=0.5;entryY=0;entryDx=0;entryDy=0;fontSize=12;startSize=8;endSize=8;" edge="1" parent="1" source="oNz4YCIeYpVKc3F23LFQ-79" target="oNz4YCIeYpVKc3F23LFQ-57">
          <mxGeometry relative="1" as="geometry" />
        </mxCell>
        <mxCell id="oNz4YCIeYpVKc3F23LFQ-79" value="精确模拟仿真" style="rounded=1;whiteSpace=wrap;html=1;fillColor=#fff2cc;strokeColor=#d6b656;fontFamily=宋体;" vertex="1" parent="1">
          <mxGeometry x="237.25" y="-84" width="85.5" height="42" as="geometry" />
        </mxCell>
      </root>
    </mxGraphModel>
  </diagram>
</mxfile>
